<svg id="visual" viewBox="0 0 960 540" width="960" height="540" xmlns="http://www.w3.org/2000/svg" xmlns:xlink="http://www.w3.org/1999/xlink" version="1.1"><rect x="0" y="0" width="960" height="540" fill="#3fb5f0"></rect><path d="M0 408L20 416.7C40 425.3 80 442.7 120 460.5C160 478.3 200 496.7 240 506.7C280 516.7 320 518.3 360 504.5C400 490.7 440 461.3 480 437.7C520 414 560 396 600 398.5C640 401 680 424 720 423.2C760 422.3 800 397.7 840 384.5C880 371.3 920 369.7 940 368.8L960 368L960 541L940 541C920 541 880 541 840 541C800 541 760 541 720 541C680 541 640 541 600 541C560 541 520 541 480 541C440 541 400 541 360 541C320 541 280 541 240 541C200 541 160 541 120 541C80 541 40 541 20 541L0 541Z" fill="#fffefe" stroke-linecap="round" stroke-linejoin="miter"></path></svg>